<?xml version="1.0" encoding="UTF-8"?>
<svg id="Ebene_1" xmlns="http://www.w3.org/2000/svg" version="1.1" xmlns:xlink="http://www.w3.org/1999/xlink" viewBox="0 0 400 400">
  <!-- Generator: Adobe Illustrator 29.3.0, SVG Export Plug-In . SVG Version: 2.1.0 Build 146)  -->
  <defs>
    <style>
      .st0, .st1, .st2, .st3, .st4, .st5, .st6 {
        stroke: #1a1a18;
      }

      .st0, .st1, .st5 {
        fill: #fff;
      }

      .st0, .st3, .st5 {
        stroke-width: 3px;
      }

      .st0, .st4 {
        stroke-linecap: square;
        stroke-linejoin: round;
      }

      .st1 {
        stroke-width: 1.72px;
      }

      .st7, .st2, .st8, .st6 {
        fill: none;
      }

      .st2, .st4 {
        stroke-width: .5px;
      }

      .st3, .st4 {
        fill: #bf0808;
      }

      .st8 {
        stroke: #e4007d;
        stroke-width: .64px;
      }

      .st9 {
        fill: #1a1a18;
      }

      .st6 {
        stroke-width: 1.35px;
      }

      .st10 {
        clip-path: url(#clippath);
      }
    </style>
    <clipPath id="clippath">
      <rect class="st7" x="148.02" y="214.2" width="104.94" height="95.86"/>
    </clipPath>
  </defs>
  <path class="st2" d="M239.96,314.62c74.19-94.96,87.08-136.6,87.08-136.6l-253.06.28s12.43,33.13,87.66,136l78.32.31Z"/>
  <path class="st4" d="M75.07,178.04h251.77s-18.71,51.37-86.88,136.67c-36.78,8.88-78.01-.31-78.01-.31,0,0-85.71-117.74-86.88-136.35Z"/>
  <path class="st0" d="M327.07,178.04c33.62-59.39,26.68-144.28,26.68-144.28H48.79s-7.62,76.74,25.57,144.28h252.71Z"/>
  <path class="st5" d="M74.29,178.39h-25.85s34.97,61.91,113.51,136c-71.35-95.13-87.66-136-87.66-136Z"/>
  <path class="st5" d="M327.36,178.11h26.42s-34.97,62.5-113.5,136.6c71.35-95.13,87.08-136.6,87.08-136.6Z"/>
  <path class="st5" d="M124.48,301.02c3.04,1.18,73.35,27.7,151.78.17.15-.05.25.1.16.2-27.48,30.65-9.67,60.74.3,67.72.02.02,0,.05-.03.04-6.2-2.34-61.21-17.78-152.15.03-.05.01-.09-.04-.05-.08,32.17-30.84,1.3-65.94-.06-68.04-.02-.03.01-.06.05-.05Z"/>
  <path class="st3" d="M48.04,42.96h-30.37s-7.94,73.44,30.75,135.28c17.76,0,26.18-.19,26.18-.19,0,0-29.4-54.23-26.55-135.08Z"/>
  <path class="st3" d="M354.31,43.38h30.37s7.61,73.03-31.08,134.87c-17.76,0-26.32-.32-26.32-.32,0,0,29.88-53.69,27.03-134.55Z"/>
  <g>
    <path class="st9" d="M147.07,115.24c-3.42,0-6.38-.3-8.87-.9s-4.61-1.44-6.36-2.52c-1.74-1.08-3.16-2.38-4.26-3.91-1.1-1.53-1.94-3.21-2.54-5.06-.6-1.84-1.01-3.83-1.22-5.96-.22-2.13-.32-4.34-.32-6.63v-32.9h12.11v32.9c0,2.63.19,4.86.57,6.7.38,1.84,1.02,3.36,1.92,4.54.9,1.18,2.08,2.04,3.54,2.57,1.46.53,3.27.8,5.43.8,2.03,0,3.76-.26,5.21-.77,1.45-.51,2.63-1.35,3.56-2.49.93-1.15,1.6-2.65,2.02-4.51.42-1.86.62-4.14.62-6.83v-32.9h12.06v32.9c0,1.99-.08,3.99-.25,5.98-.17,1.99-.52,3.92-1.05,5.78-.53,1.86-1.32,3.59-2.37,5.18-1.05,1.59-2.43,2.99-4.16,4.19-1.73,1.2-3.87,2.14-6.43,2.82-2.56.68-5.63,1.02-9.22,1.02Z"/>
    <path class="st9" d="M204.24,115.24c-7.74,0-13.81-1.64-18.19-4.93s-6.76-8.27-7.13-14.95h11.66c.4,3.42,1.74,5.98,4.01,7.68,2.28,1.69,5.39,2.54,9.35,2.54,3.62,0,6.49-.63,8.6-1.89,2.11-1.26,3.17-3.09,3.17-5.48,0-1.06-.26-1.96-.77-2.69-.52-.73-1.3-1.37-2.34-1.92-1.05-.55-2.35-1.05-3.91-1.52-1.56-.47-3.41-.96-5.53-1.5l-2.14-.6c-2.69-.7-5.25-1.4-7.68-2.12-2.43-.71-4.55-1.66-6.38-2.84-1.83-1.18-3.28-2.71-4.36-4.59-1.08-1.88-1.62-4.31-1.62-7.3s.6-5.34,1.79-7.45c1.2-2.11,2.82-3.85,4.86-5.23,2.04-1.38,4.41-2.4,7.1-3.07,2.69-.66,5.53-1,8.52-1,3.46,0,6.59.41,9.4,1.22,2.81.81,5.22,1.99,7.23,3.51,2.01,1.53,3.58,3.4,4.71,5.61,1.13,2.21,1.74,4.71,1.84,7.5h-11.76c-.3-2.69-1.42-4.73-3.36-6.11-1.94-1.38-4.63-2.07-8.05-2.07s-5.81.59-7.58,1.77c-1.76,1.18-2.64,2.8-2.64,4.86,0,.96.22,1.79.67,2.47.45.68,1.15,1.28,2.09,1.79.95.52,2.16.99,3.64,1.42,1.48.43,3.25.9,5.31,1.4,2.06.47,4.06.93,6.01,1.4,1.94.47,3.77,1,5.48,1.59,1.71.6,3.27,1.3,4.69,2.12,1.41.81,2.62,1.8,3.61,2.97,1,1.16,1.78,2.54,2.34,4.14.56,1.59.85,3.47.85,5.63,0,2.82-.56,5.33-1.67,7.53-1.11,2.19-2.69,4.04-4.73,5.53-2.04,1.5-4.51,2.63-7.4,3.41-2.89.78-6.11,1.17-9.67,1.17Z"/>
    <path class="st9" d="M283.89,57.38l-19.39,56.97h-13.71l-19.49-56.97h12.66l13.66,46.15,14.11-46.15h12.16Z"/>
  </g>
  <g>
    <path class="st9" d="M87.92,157.93c-3.47,0-6.19-.74-8.16-2.21s-3.03-3.71-3.2-6.7h5.23c.18,1.53.78,2.68,1.8,3.44,1.02.76,2.42,1.14,4.19,1.14,1.62,0,2.91-.28,3.85-.85.95-.57,1.42-1.39,1.42-2.46,0-.48-.12-.88-.35-1.21-.23-.33-.58-.61-1.05-.86-.47-.25-1.05-.47-1.75-.68-.7-.21-1.53-.43-2.48-.67l-.96-.27c-1.21-.31-2.35-.63-3.44-.95-1.09-.32-2.04-.74-2.86-1.27-.82-.53-1.47-1.21-1.96-2.06s-.73-1.93-.73-3.27.27-2.39.8-3.34,1.26-1.73,2.18-2.35c.92-.62,1.98-1.08,3.18-1.37,1.21-.3,2.48-.45,3.82-.45,1.55,0,2.95.18,4.21.55,1.26.37,2.34.89,3.24,1.58.9.69,1.6,1.52,2.11,2.51.51.99.78,2.11.83,3.36h-5.27c-.13-1.21-.64-2.12-1.51-2.74-.87-.62-2.07-.93-3.61-.93s-2.61.26-3.4.79c-.79.53-1.18,1.26-1.18,2.18,0,.43.1.8.3,1.11.2.31.51.57.94.8.42.23.97.44,1.63.64.66.19,1.46.4,2.38.63.92.21,1.82.42,2.69.63.87.21,1.69.45,2.46.71.77.27,1.47.58,2.1.95.63.37,1.17.81,1.62,1.33.45.52.8,1.14,1.05,1.85.25.71.38,1.56.38,2.52,0,1.27-.25,2.39-.75,3.37s-1.21,1.81-2.12,2.48c-.92.67-2.02,1.18-3.32,1.53-1.3.35-2.74.53-4.33.53Z"/>
    <path class="st9" d="M121.1,136.66h-7.55v20.87h-5.38v-20.87h-7.51v-4.67h20.44v4.67Z"/>
    <path class="st9" d="M129.99,157.53h-5.54v-5.27h5.54v5.27Z"/>
    <path class="st9" d="M157.12,157.93c-1.85,0-3.53-.3-5.04-.9-1.51-.6-2.81-1.47-3.89-2.59-1.08-1.12-1.91-2.5-2.5-4.13-.59-1.63-.88-3.47-.88-5.53s.27-3.76.82-5.38c.54-1.62,1.34-3.02,2.39-4.18,1.05-1.16,2.33-2.06,3.85-2.7,1.52-.64,3.25-.96,5.21-.96,1.58,0,3.03.2,4.35.6,1.32.4,2.46.98,3.43,1.73.97.75,1.75,1.67,2.34,2.75.59,1.08.95,2.3,1.08,3.65h-5.38c-.15-1.3-.73-2.3-1.74-3.03-1.01-.72-2.35-1.08-4.02-1.08-1.03,0-1.95.19-2.78.57-.83.38-1.53.93-2.11,1.66-.58.73-1.03,1.63-1.35,2.7-.32,1.07-.48,2.29-.48,3.66s.16,2.61.48,3.69c.32,1.07.78,1.97,1.39,2.7.6.73,1.33,1.28,2.18,1.65.85.37,1.8.56,2.86.56,2.64,0,4.63-.8,5.99-2.39v-2.88h-5.45v-4.11h10.81v13.54h-3.35l-.67-2.06c-.88.8-1.93,1.42-3.16,1.83-1.23.42-2.68.63-4.35.63Z"/>
    <path class="st9" d="M193.16,157.53h-19.66v-25.54h19.08v4.54h-13.65v5.72h12.74v4.58h-12.74v6.12h14.23v4.58Z"/>
    <path class="st9" d="M208.64,131.54c1.88,0,3.57.32,5.07.95,1.5.63,2.78,1.53,3.84,2.69,1.06,1.16,1.87,2.55,2.44,4.18.57,1.62.85,3.43.85,5.41s-.28,3.74-.84,5.35c-.56,1.62-1.36,3-2.41,4.16-1.05,1.15-2.33,2.05-3.84,2.69-1.51.64-3.21.96-5.11.96s-3.62-.32-5.14-.95c-1.52-.63-2.81-1.53-3.87-2.68-1.06-1.15-1.87-2.54-2.42-4.16-.56-1.62-.84-3.41-.84-5.37s.28-3.78.85-5.41c.57-1.62,1.38-3.02,2.45-4.18,1.06-1.16,2.35-2.06,3.87-2.69,1.51-.63,3.21-.95,5.11-.95ZM208.6,153.37c1.07,0,2.02-.22,2.85-.66.83-.44,1.53-1.04,2.1-1.81s1.01-1.68,1.3-2.73c.29-1.05.44-2.19.44-3.41s-.14-2.34-.42-3.38c-.28-1.05-.7-1.96-1.26-2.74-.56-.77-1.25-1.38-2.07-1.82-.82-.44-1.77-.66-2.84-.66s-2.03.22-2.87.65c-.84.43-1.55,1.03-2.11,1.8-.57.77-1,1.68-1.3,2.73-.3,1.05-.45,2.19-.45,3.43s.15,2.36.45,3.41c.3,1.05.73,1.96,1.3,2.73.57.77,1.26,1.37,2.08,1.81.82.44,1.76.66,2.81.66Z"/>
    <path class="st9" d="M247.25,157.53h-5.85l-2.19-6.23c-.43-1.27-1.01-2.17-1.74-2.73-.73-.55-1.65-.83-2.75-.83h-4.22v9.79h-5.43v-25.54h11.35c.94,0,1.82.04,2.64.12.82.08,1.58.23,2.27.44.69.21,1.32.5,1.88.87.56.37,1.04.86,1.44,1.45.42.6.74,1.25.96,1.98.22.72.33,1.53.33,2.42,0,1.8-.48,3.25-1.43,4.33-.95,1.09-2.28,1.84-3.98,2.26.51.22.96.48,1.37.76.41.28.78.63,1.11,1.03.33.4.63.88.89,1.42s.53,1.15.78,1.82l2.57,6.64ZM230.49,143.38h5.36c1.61,0,2.77-.29,3.47-.87.71-.58,1.06-1.53,1.06-2.84,0-2.31-1.39-3.46-4.18-3.46h-5.72v7.17Z"/>
    <path class="st9" d="M262,157.93c-1.85,0-3.53-.3-5.04-.9-1.51-.6-2.81-1.47-3.89-2.59-1.08-1.12-1.91-2.5-2.5-4.13-.59-1.63-.88-3.47-.88-5.53s.27-3.76.82-5.38c.54-1.62,1.34-3.02,2.39-4.18,1.05-1.16,2.33-2.06,3.85-2.7,1.52-.64,3.25-.96,5.21-.96,1.58,0,3.03.2,4.35.6,1.32.4,2.46.98,3.43,1.73.97.75,1.75,1.67,2.33,2.75.59,1.08.95,2.3,1.08,3.65h-5.38c-.15-1.3-.73-2.3-1.74-3.03-1.01-.72-2.35-1.08-4.02-1.08-1.03,0-1.95.19-2.78.57-.83.38-1.53.93-2.11,1.66-.58.73-1.03,1.63-1.35,2.7-.32,1.07-.48,2.29-.48,3.66s.16,2.61.48,3.69c.32,1.07.78,1.97,1.39,2.7.6.73,1.33,1.28,2.18,1.65.85.37,1.8.56,2.86.56,2.64,0,4.63-.8,5.99-2.39v-2.88h-5.45v-4.11h10.81v13.54h-3.35l-.67-2.06c-.88.8-1.93,1.42-3.16,1.83-1.23.42-2.68.63-4.35.63Z"/>
    <path class="st9" d="M298.04,157.53h-19.66v-25.54h19.08v4.54h-13.65v5.72h12.74v4.58h-12.74v6.12h14.23v4.58Z"/>
    <path class="st9" d="M323.26,157.53h-5.5l-10.48-17.76v17.76h-5.12v-25.54h5.47l10.52,17.72v-17.72h5.09v25.54Z"/>
  </g>
  <g class="st10">
    <path class="st1" d="M243.9,263.22c0,23.71-19.17,43-42.73,43s-43.82-17.4-42.76-43c-.51-25.05,19.17-43,42.76-43s42.73,19.25,42.73,43Z"/>
    <path class="st6" d="M199.84,304.22s1.92.74,3.22,1.76"/>
    <path class="st6" d="M228.65,263.49s3.45,5.92,6.39,10.82"/>
    <path class="st6" d="M228.22,291.52c-2.47,1.8-7.25,2.39-13.96,3.88"/>
    <path class="st6" d="M207.17,283.72c.16.2,4.51-7.33,6.35-14.35"/>
    <polygon class="st9" points="184.94 298.5 186.28 299.32 187.53 300.06 189.96 301.32 192.12 302.3 194.04 302.96 195.61 303.48 196.86 303.79 198.16 304.02 198.9 304.18 199.64 304.3 200.39 304.3 201.09 304.26 201.84 304.18 202.58 304.02 204 303.55 205.37 302.96 206.7 302.22 207.99 301.4 209.17 300.49 210.27 299.55 211.25 298.65 212.85 297.05 213.91 295.83 214.26 295.4 212.89 293.95 211.87 292.77 210.74 291.32 209.6 289.68 209.09 288.77 208.58 287.83 208.15 286.89 207.76 285.87 207.44 284.89 207.21 283.84 206.82 283.99 205.68 284.35 203.92 284.85 201.53 285.33 200.15 285.56 198.66 285.76 197.02 285.87 195.29 285.95 193.49 285.95 191.57 285.87 189.61 285.68 187.53 285.37 187.18 286.42 186.83 287.68 186.36 289.28 185.93 291.24 185.49 293.48 185.14 295.91 184.94 298.5"/>
    <polygon class="st8" points="184.94 298.5 186.28 299.32 187.53 300.06 189.96 301.32 192.12 302.3 194.04 302.96 195.61 303.48 196.86 303.79 198.16 304.02 198.9 304.18 199.64 304.3 200.39 304.3 201.09 304.26 201.84 304.18 202.58 304.02 204 303.55 205.37 302.96 206.7 302.22 207.99 301.4 209.17 300.49 210.27 299.55 211.25 298.65 212.85 297.05 213.91 295.83 214.26 295.4 212.89 293.95 211.87 292.77 210.74 291.32 209.6 289.68 209.09 288.77 208.58 287.83 208.15 286.89 207.76 285.87 207.44 284.89 207.21 283.84 206.82 283.99 205.68 284.35 203.92 284.85 201.53 285.33 200.15 285.56 198.66 285.76 197.02 285.87 195.29 285.95 193.49 285.95 191.57 285.87 189.61 285.68 187.53 285.37 187.18 286.42 186.83 287.68 186.36 289.28 185.93 291.24 185.49 293.48 185.14 295.91 184.94 298.5"/>
    <path class="st6" d="M184.94,298.5c7.17,4.74,12.62,5.37,13.21,5.53,7.84,2.08,16.11-8.62,16.11-8.62-.98-.98-6.08-6-7.05-11.56,0,0-8.55,3.49-19.68,1.53,0,0-2.27,6.11-2.59,13.13Z"/>
    <path class="st6" d="M184.83,298.53c-.16-.16-7.96.24-11.52-1.57"/>
    <path class="st6" d="M177.22,271.21c-.2.16,2.7,7.6,10.39,14.15"/>
    <path class="st6" d="M163.86,252.79s-2.67-1.49-3.49-3.29"/>
    <polygon class="st9" points="176.13 242.52 175.65 242.76 174.4 243.35 172.64 244.29 170.56 245.5 169.46 246.21 168.4 246.99 167.34 247.81 166.4 248.71 165.54 249.7 164.84 250.67 164.25 251.77 164.05 252.32 163.86 252.87 163.43 254.28 163.15 255.73 162.96 257.22 162.92 258.67 162.96 260.12 163.11 261.49 163.31 262.87 163.54 264.12 164.09 266.39 164.68 268.16 165.27 269.72 165.43 269.76 165.93 269.72 166.76 269.69 168.01 269.69 169.62 269.8 171.7 270.04 174.2 270.51 177.22 271.21 177.22 270.78 177.38 269.65 177.73 267.88 178.28 265.65 178.67 264.39 179.18 263.06 179.77 261.69 180.44 260.24 181.26 258.83 182.16 257.38 183.22 255.97 184.4 254.56 184.08 254.36 183.3 253.66 182.16 252.56 180.87 251.07 179.5 249.23 178.79 248.24 178.16 247.19 177.54 246.09 176.99 244.91 176.52 243.74 176.13 242.52"/>
    <polygon class="st8" points="176.13 242.52 175.65 242.76 174.4 243.35 172.64 244.29 170.56 245.5 169.46 246.21 168.4 246.99 167.34 247.81 166.4 248.71 165.54 249.7 164.84 250.67 164.25 251.77 164.05 252.32 163.86 252.87 163.43 254.28 163.15 255.73 162.96 257.22 162.92 258.67 162.96 260.12 163.11 261.49 163.31 262.87 163.54 264.12 164.09 266.39 164.68 268.16 165.27 269.72 165.43 269.76 165.93 269.72 166.76 269.69 168.01 269.69 169.62 269.8 171.7 270.04 174.2 270.51 177.22 271.21 177.22 270.78 177.38 269.65 177.73 267.88 178.28 265.65 178.67 264.39 179.18 263.06 179.77 261.69 180.44 260.24 181.26 258.83 182.16 257.38 183.22 255.97 184.4 254.56 184.08 254.36 183.3 253.66 182.16 252.56 180.87 251.07 179.5 249.23 178.79 248.24 178.16 247.19 177.54 246.09 176.99 244.91 176.52 243.74 176.13 242.52"/>
    <path class="st6" d="M176.13,242.52s-10.78,4.31-12.27,10.35c-2.78,7.52,1.41,16.85,1.41,16.85,0,0,3.29-.79,11.96,1.49,0,0,.47-9.33,7.17-16.66-.16.16-6.47-5.49-8.27-12.03Z"/>
    <path class="st6" d="M202.27,253.14c-9.8-.35-17.84,1.41-17.84,1.41"/>
    <polygon class="st9" points="202.35 253.07 204.5 255.1 206.35 257.02 207.91 258.75 209.25 260.36 210.34 261.85 211.25 263.18 211.99 264.35 212.54 265.45 212.93 266.35 213.21 267.18 213.4 267.88 213.52 268.43 213.52 269.26 213.48 269.57 214.69 268.71 215.95 267.92 217.24 267.22 218.54 266.59 219.83 266.04 221.12 265.57 223.51 264.79 225.59 264.24 227.24 263.85 228.3 263.65 228.65 263.53 229 261.57 229.24 259.65 229.36 257.81 229.36 256.05 229.28 254.36 229.16 252.79 228.92 251.3 228.69 249.93 228.14 247.58 227.59 245.78 227.2 244.64 227 244.25 224.81 243.34 219.87 241.39 217.13 240.37 214.66 239.5 212.7 238.92 212.03 238.76 211.6 238.76 210.7 239.86 209.8 240.99 208.11 243.38 206.54 245.78 205.13 248.05 204 250.09 203.13 251.7 202.35 253.07"/>
    <polygon class="st8" points="202.35 253.07 204.5 255.1 206.35 257.02 207.91 258.75 209.25 260.36 210.34 261.85 211.25 263.18 211.99 264.35 212.54 265.45 212.93 266.35 213.21 267.18 213.4 267.88 213.52 268.43 213.52 269.26 213.48 269.57 214.69 268.71 215.95 267.92 217.24 267.22 218.54 266.59 219.83 266.04 221.12 265.57 223.51 264.79 225.59 264.24 227.24 263.85 228.3 263.65 228.65 263.53 229 261.57 229.24 259.65 229.36 257.81 229.36 256.05 229.28 254.36 229.16 252.79 228.92 251.3 228.69 249.93 228.14 247.58 227.59 245.78 227.2 244.64 227 244.25 224.81 243.34 219.87 241.39 217.13 240.37 214.66 239.5 212.7 238.92 212.03 238.76 211.6 238.76 210.7 239.86 209.8 240.99 208.11 243.38 206.54 245.78 205.13 248.05 204 250.09 203.13 251.7 202.35 253.07"/>
    <path class="st6" d="M202.35,253.07c12.15,11.29,11.29,16.19,11.13,16.5,6.35-4.9,15.17-6.04,15.17-6.04,2.27-10.62-1.65-19.28-1.65-19.28,0,0-13.91-5.8-15.4-5.49-4.9,5.57-9.25,14.31-9.25,14.31Z"/>
    <path class="st6" d="M233.71,240.17s-3.49,1.14-6.59,4.27"/>
    <polygon class="st9" points="239.27 243.89 237.9 241.46 236.69 239.43 235.59 237.78 234.65 236.49 233.86 235.51 233.24 234.88 232.8 234.53 232.57 234.45 233.08 236.41 233.47 238.25 233.63 239.23 233.71 240.17 235.2 241.03 236.96 242.21 239.27 243.89"/>
    <polygon class="st8" points="239.27 243.89 237.9 241.46 236.69 239.43 235.59 237.78 234.65 236.49 233.86 235.51 233.24 234.88 232.8 234.53 232.57 234.45 233.08 236.41 233.47 238.25 233.63 239.23 233.71 240.17 235.2 241.03 236.96 242.21 239.27 243.89"/>
    <path class="st6" d="M239.27,243.89c-3.76-7.02-6.39-9.6-6.7-9.45,0,0,.98,3.29,1.14,5.72,0,0,2.12,1.1,5.57,3.72Z"/>
    <path class="st6" d="M184,229.63c-.16.16-5.49,5.8-7.88,12.86"/>
    <path class="st6" d="M211.25,238.72s-4.98-9.33-8.39-10.94"/>
    <polygon class="st9" points="228.26 291.4 228.45 291.87 228.77 292.97 228.89 293.71 228.92 294.5 228.88 295.28 228.65 296.03 231.08 293.68 233.2 291.36 235.04 289.13 236.61 286.97 237.94 284.85 239.12 282.82 240.06 280.9 240.84 279.01 241.47 277.29 241.98 275.64 242.41 274.08 242.72 272.66 243.27 270.2 243.74 268.28 242.96 269.41 242.1 270.59 241 271.84 240.33 272.47 239.66 273.06 238.96 273.57 238.21 274 237.43 274.31 236.65 274.47 235.86 274.51 235.08 274.31 235.16 275.13 235.16 276 235.12 276.9 235.04 277.8 234.88 278.78 234.69 279.76 234.41 280.78 234.06 281.84 233.63 282.93 233.16 284.03 232.57 285.21 231.9 286.38 231.12 287.6 230.26 288.85 229.32 290.11 228.26 291.4"/>
    <polygon class="st8" points="228.26 291.4 228.45 291.87 228.77 292.97 228.89 293.71 228.92 294.5 228.88 295.28 228.65 296.03 231.08 293.68 233.2 291.36 235.04 289.13 236.61 286.97 237.94 284.85 239.12 282.82 240.06 280.9 240.84 279.01 241.47 277.29 241.98 275.64 242.41 274.08 242.72 272.66 243.27 270.2 243.74 268.28 242.96 269.41 242.1 270.59 241 271.84 240.33 272.47 239.66 273.06 238.96 273.57 238.21 274 237.43 274.31 236.65 274.47 235.86 274.51 235.08 274.31 235.16 275.13 235.16 276 235.12 276.9 235.04 277.8 234.88 278.78 234.69 279.76 234.41 280.78 234.06 281.84 233.63 282.93 233.16 284.03 232.57 285.21 231.9 286.38 231.12 287.6 230.26 288.85 229.32 290.11 228.26 291.4"/>
    <path class="st6" d="M228.26,291.4s1.22,2.67.39,4.63c13.72-12.66,13.72-23.4,15.09-27.75,0,0-4.47,7.52-8.66,6.04.47,4.31-.94,10.07-6.82,17.09Z"/>
    <polygon class="st9" points="209.05 220.73 208.31 221.16 207.6 221.59 206.97 222.1 206.35 222.65 205.29 223.79 204.43 224.92 203.72 225.94 203.25 226.8 202.86 227.59 202.5 227.55 201.29 227.24 199.37 226.81 198.19 226.65 196.9 226.49 195.49 226.41 193.96 226.45 192.39 226.57 190.78 226.84 189.1 227.24 187.41 227.82 185.73 228.57 184.91 229.04 184.08 229.55 183.57 228.88 183.02 228.33 182.48 227.9 181.85 227.55 181.22 227.35 180.63 227.2 180.01 227.16 179.38 227.11 178.28 227.27 177.38 227.47 176.56 227.78 177.93 226.84 179.3 225.98 180.67 225.2 182.04 224.49 183.42 223.86 184.75 223.27 186.12 222.77 187.45 222.29 190.08 221.51 192.67 220.96 195.1 220.53 197.45 220.3 199.64 220.18 201.64 220.14 203.48 220.18 205.09 220.3 207.64 220.53 209.05 220.73"/>
    <polygon class="st8" points="209.05 220.73 208.31 221.16 207.6 221.59 206.97 222.1 206.35 222.65 205.29 223.79 204.43 224.92 203.72 225.94 203.25 226.8 202.86 227.59 202.5 227.55 201.29 227.24 199.37 226.81 198.19 226.65 196.9 226.49 195.49 226.41 193.96 226.45 192.39 226.57 190.78 226.84 189.1 227.24 187.41 227.82 185.73 228.57 184.91 229.04 184.08 229.55 183.57 228.88 183.02 228.33 182.48 227.9 181.85 227.55 181.22 227.35 180.63 227.2 180.01 227.16 179.38 227.11 178.28 227.27 177.38 227.47 176.56 227.78 177.93 226.84 179.3 225.98 180.67 225.2 182.04 224.49 183.42 223.86 184.75 223.27 186.12 222.77 187.45 222.29 190.08 221.51 192.67 220.96 195.1 220.53 197.45 220.3 199.64 220.18 201.64 220.14 203.48 220.18 205.09 220.3 207.64 220.53 209.05 220.73"/>
    <path class="st6" d="M209.05,220.73c-4.08,1.96-6.19,6.86-6.19,6.86.31.35-9.96-3.92-18.78,1.96-2.47-4.08-7.52-1.77-7.52-1.77,14.54-10.31,30.34-7.33,32.49-7.05Z"/>
    <path class="st6" d="M161.86,281.48s-.78-6.9,3.33-11.64"/>
  </g>
  <g>
    <path class="st9" d="M139.59,194.98h-10.62v5.43h9.11v3.86h-9.11v8.49h-4.59v-21.61h15.22v3.84Z"/>
    <path class="st9" d="M151.98,213.09c-1.3,0-2.42-.11-3.37-.34s-1.75-.55-2.41-.95c-.66-.41-1.2-.9-1.62-1.48-.42-.58-.74-1.22-.96-1.92-.23-.7-.38-1.45-.46-2.26-.08-.81-.12-1.65-.12-2.51v-12.48h4.59v12.48c0,1,.07,1.84.22,2.54.15.7.39,1.27.73,1.72s.79.77,1.34.97c.55.2,1.24.3,2.06.3.77,0,1.43-.1,1.98-.29.55-.2,1-.51,1.35-.95.35-.44.61-1.01.77-1.71.16-.71.24-1.57.24-2.59v-12.48h4.58v12.48c0,.76-.03,1.51-.09,2.27-.06.76-.2,1.49-.4,2.19-.2.71-.5,1.36-.9,1.97-.4.6-.92,1.13-1.58,1.59-.66.45-1.47.81-2.44,1.07-.97.26-2.14.39-3.5.39Z"/>
    <path class="st9" d="M173.66,213.09c-2.94,0-5.24-.62-6.9-1.87-1.66-1.25-2.56-3.14-2.7-5.67h4.42c.15,1.3.66,2.27,1.52,2.91.86.64,2.04.96,3.54.96,1.37,0,2.46-.24,3.26-.72.8-.48,1.2-1.17,1.2-2.08,0-.4-.1-.74-.29-1.02-.2-.28-.49-.52-.89-.73-.4-.21-.89-.4-1.48-.58-.59-.18-1.29-.37-2.1-.57l-.81-.23c-1.02-.26-1.99-.53-2.91-.8-.92-.27-1.73-.63-2.42-1.08-.69-.45-1.24-1.03-1.65-1.74-.41-.71-.61-1.64-.61-2.77s.23-2.03.68-2.83c.45-.8,1.07-1.46,1.84-1.98.78-.52,1.67-.91,2.69-1.16,1.02-.25,2.1-.38,3.23-.38,1.31,0,2.5.15,3.56.46,1.07.31,1.98.75,2.74,1.33.76.58,1.36,1.29,1.79,2.13.43.84.66,1.79.7,2.85h-4.46c-.11-1.02-.54-1.79-1.28-2.32-.74-.52-1.76-.78-3.05-.78s-2.21.22-2.87.67c-.67.45-1,1.06-1,1.84,0,.37.09.68.26.94.17.26.44.49.79.68.36.2.82.38,1.38.54.56.16,1.23.34,2.01.53.78.18,1.54.35,2.28.53.74.18,1.43.38,2.08.6.65.23,1.24.49,1.78.8.54.31.99.68,1.37,1.12s.67.96.89,1.57c.21.6.32,1.32.32,2.14,0,1.07-.21,2.02-.63,2.85-.42.83-1.02,1.53-1.8,2.1-.77.57-1.71,1-2.81,1.3s-2.32.44-3.67.44Z"/>
    <path class="st9" d="M194.46,213.09c-2.94,0-5.24-.62-6.9-1.87-1.66-1.25-2.56-3.14-2.7-5.67h4.42c.15,1.3.66,2.27,1.52,2.91.86.64,2.04.96,3.54.96,1.37,0,2.46-.24,3.26-.72.8-.48,1.2-1.17,1.2-2.08,0-.4-.1-.74-.29-1.02-.2-.28-.49-.52-.89-.73-.4-.21-.89-.4-1.48-.58-.59-.18-1.29-.37-2.1-.57l-.81-.23c-1.02-.26-1.99-.53-2.91-.8-.92-.27-1.73-.63-2.42-1.08-.69-.45-1.24-1.03-1.65-1.74-.41-.71-.61-1.64-.61-2.77s.23-2.03.68-2.83c.45-.8,1.07-1.46,1.84-1.98.78-.52,1.67-.91,2.69-1.16,1.02-.25,2.1-.38,3.23-.38,1.31,0,2.5.15,3.56.46,1.07.31,1.98.75,2.74,1.33.76.58,1.36,1.29,1.79,2.13.43.84.66,1.79.7,2.85h-4.46c-.11-1.02-.54-1.79-1.28-2.32-.74-.52-1.76-.78-3.05-.78s-2.21.22-2.87.67c-.67.45-1,1.06-1,1.84,0,.37.09.68.26.94.17.26.44.49.79.68.36.2.82.38,1.38.54.56.16,1.23.34,2.01.53.78.18,1.54.35,2.28.53.74.18,1.43.38,2.08.6.65.23,1.24.49,1.78.8.54.31.99.68,1.37,1.12s.67.96.89,1.57.32,1.32.32,2.14c0,1.07-.21,2.02-.63,2.85-.42.83-1.02,1.53-1.8,2.1-.77.57-1.71,1-2.81,1.3s-2.32.44-3.67.44Z"/>
    <path class="st9" d="M223.42,206.36c0,2.03-.67,3.6-2,4.72-1.33,1.12-3.36,1.67-6.1,1.67h-8.51v-21.61h8.39c1.15,0,2.18.13,3.1.38.92.25,1.7.62,2.34,1.1.64.48,1.13,1.06,1.48,1.74.34.68.51,1.44.51,2.29,0,2.21-1.05,3.77-3.14,4.69,1.32.37,2.31.99,2.95,1.87.64.88.97,1.94.97,3.16ZM211.38,199.82h3.61c1.07,0,1.86-.19,2.35-.56s.75-1.02.75-1.96c0-.83-.24-1.45-.73-1.86-.49-.41-1.34-.61-2.56-.61h-3.42v4.99ZM211.38,209.06h3.65c1.22,0,2.14-.22,2.75-.66.61-.44.92-1.15.92-2.12,0-.49-.06-.91-.19-1.26s-.34-.63-.64-.85-.7-.38-1.19-.48c-.49-.1-1.1-.15-1.83-.15h-3.46v5.52Z"/>
    <path class="st9" d="M245.26,212.75h-4.76l-1.78-5.14h-7.69l-1.7,5.14h-4.58l7.54-21.61h5.09l7.88,21.61ZM237.64,203.88l-2.84-8.87-2.74,8.87h5.58Z"/>
    <path class="st9" d="M261.63,212.75h-14.24v-21.61h4.59v17.66h9.64v3.95Z"/>
    <path class="st9" d="M278.99,212.75h-14.24v-21.61h4.59v17.66h9.64v3.95Z"/>
  </g>
  <g>
    <path class="st9" d="M174.12,349.32h-4.93v-17.24c-.69.44-1.47.78-2.35,1.01-.88.23-1.96.35-3.24.35v-3.79c2.02,0,3.56-.36,4.63-1.07,1.07-.71,1.75-1.79,2.05-3.24h3.84v23.99Z"/>
    <path class="st9" d="M193.41,339.23c-.74.67-1.54,1.19-2.39,1.54-.85.35-1.73.53-2.64.53-1.15,0-2.19-.19-3.1-.56-.91-.37-1.69-.89-2.33-1.56-.64-.67-1.13-1.47-1.46-2.4-.34-.93-.51-1.97-.51-3.09s.18-2.22.54-3.23c.36-1.01.89-1.9,1.6-2.66.71-.76,1.59-1.36,2.65-1.8,1.06-.44,2.3-.66,3.71-.66s2.78.26,3.89.78c1.11.52,2.03,1.28,2.76,2.28.74,1,1.29,2.22,1.66,3.66s.56,3.09.56,4.93c0,4.18-.75,7.34-2.26,9.49s-3.82,3.22-6.94,3.22c-1.14,0-2.18-.13-3.11-.39-.94-.26-1.74-.65-2.42-1.17s-1.23-1.15-1.64-1.92-.67-1.65-.76-2.65h4.72c.37,1.55,1.43,2.33,3.18,2.33,1.29,0,2.3-.59,3.02-1.76s1.15-2.81,1.29-4.9ZM193.41,335.77c-.03-2.14-.38-3.78-1.05-4.91-.67-1.13-1.65-1.69-2.93-1.69-.58,0-1.09.11-1.53.34-.44.23-.81.53-1.1.92-.3.38-.52.83-.66,1.34s-.22,1.05-.22,1.63c0,.63.09,1.2.27,1.7.18.5.43.93.74,1.28.32.35.69.62,1.12.8s.9.28,1.41.28c.74,0,1.42-.13,2.03-.4.61-.27,1.25-.7,1.91-1.29Z"/>
    <path class="st9" d="M206.46,334.78c1.07-.81,2.52-1.22,4.35-1.22,1.09,0,2.09.18,3.01.53s1.72.86,2.38,1.53c.67.67,1.19,1.48,1.56,2.43.37.96.56,2.04.56,3.25s-.19,2.39-.57,3.42-.94,1.92-1.69,2.65c-.75.74-1.68,1.31-2.79,1.71s-2.41.61-3.9.61c-1.21,0-2.32-.15-3.33-.44s-1.89-.74-2.64-1.33-1.35-1.33-1.81-2.23-.75-1.94-.88-3.13h4.74c.08.58.24,1.08.47,1.5.23.42.52.77.87,1.04s.73.48,1.17.61c.43.13.89.2,1.37.2.66,0,1.24-.11,1.75-.33s.93-.53,1.28-.92.6-.85.77-1.38c.17-.53.26-1.1.26-1.72,0-.88-.1-1.56-.29-2.03s-.45-.86-.77-1.14-.67-.51-1.04-.65-1.02-.22-1.96-.22c-1.36,0-2.63.45-3.79,1.34h-3.63l1.05-13.1h13.98v4.02h-10.02l-.45,5.01Z"/>
    <path class="st9" d="M233.25,336.94c1.65.67,2.88,1.51,3.7,2.5s1.23,2.19,1.23,3.59c0,1.03-.2,1.96-.59,2.78s-.96,1.53-1.7,2.1-1.65,1.02-2.72,1.32-2.29.45-3.65.45-2.56-.15-3.63-.44-1.98-.73-2.73-1.29-1.33-1.26-1.73-2.08-.61-1.77-.61-2.85c0-1.4.42-2.6,1.26-3.59s2.07-1.82,3.69-2.5c-1.44-.74-2.47-1.56-3.09-2.46-.62-.9-.93-1.94-.93-3.1,0-.99.21-1.86.62-2.61.41-.75.98-1.38,1.69-1.89s1.54-.89,2.47-1.15,1.93-.39,2.99-.39,2.08.13,3.02.39,1.76.65,2.46,1.15,1.25,1.14,1.65,1.89c.4.75.6,1.62.6,2.61,0,1.21-.33,2.27-1,3.17-.67.9-1.67,1.7-3,2.4ZM233.15,342.82c0-.88-.29-1.62-.88-2.23s-1.5-1.19-2.75-1.75c-1.22.56-2.14,1.15-2.75,1.75s-.92,1.35-.92,2.23c0,1.03.33,1.84,1,2.43s1.56.89,2.67.89,2-.3,2.65-.89.98-1.4.98-2.43ZM229.52,335.17c.99-.44,1.76-.96,2.31-1.55s.82-1.26.82-2c0-.85-.27-1.52-.82-2.01-.55-.49-1.32-.73-2.31-.73s-1.76.24-2.32.73c-.56.49-.84,1.16-.84,2.01,0,.74.28,1.41.85,2s1.33,1.11,2.31,1.55Z"/>
  </g>
</svg>